<?xml version="1.0" encoding="UTF-8"?>
<svg width="19px" height="20px" viewBox="0 0 19 20" version="1.1" xmlns="http://www.w3.org/2000/svg" xmlns:xlink="http://www.w3.org/1999/xlink">
    <!-- Generator: sketchtool 47.1 (45422) - http://www.bohemiancoding.com/sketch -->
    <title>8D298FC3-3670-4F5A-9DEC-1B07A39BBFA3</title>
    <desc>Created with sketchtool.</desc>
    <defs></defs>
    <g id="房源详情页" stroke="none" stroke-width="1" fill="none" fill-rule="evenodd">
        <g id="房源详情0-改版02" transform="translate(-592.000000, -764.000000)" fill="#333333">
            <g id="Group-23" transform="translate(0.000000, 595.000000)">
                <g id="tab" transform="translate(360.000000, 168.000000)">
                    <g id="Group-4-Copy-2" transform="translate(232.000000, 0.000000)">
                        <g id="5张床" transform="translate(0.000000, 1.000000)">
                            <path d="M15.3407927,20 L15.3407927,16.9231759 L2.84077087,16.9231759 L2.84077087,20 L0,20 L0,14.6153612 L18.1818182,14.6153612 L18.1818182,20 L15.3407927,20 Z M3.95253873,7.8571569 C5.62216344,7.03925111 12.7502317,7.03900091 14.2292794,7.8571569 C16.5716036,9.15269564 18.1818182,13.8460659 18.1818182,13.8460659 L0,13.8460659 C0,13.8460659 1.93351763,8.84609267 3.95253873,7.8571569 Z M15.7539588,7.13715104 C15.8535272,6.94864275 15.9090869,6.74773166 15.9090869,6.53845673 C15.9090869,6.10031972 15.6701736,5.69763971 15.2729182,5.3742733 C15.2638492,5.34578617 15.2583759,5.31647696 15.2478113,5.28841875 C15.306235,5.1959875 15.34092,5.09980324 15.34092,4.99997319 C15.34092,4.36274799 14.0690599,3.84611948 12.4999901,3.84611948 C10.930952,3.84611948 9.6590919,4.36274799 9.6590919,4.99997319 C9.6590919,5.09980324 9.69364969,5.1959875 9.75220063,5.28841875 C9.69364969,5.4424351 9.6590919,5.60284943 9.6590919,5.7691256 C9.6590919,5.92117609 9.69053121,6.06779364 9.74039498,6.20951441 C9.54412203,6.12419601 9.32557427,6.07140368 9.090925,6.07140368 C8.85621209,6.07140368 8.63756886,6.12419601 8.4414232,6.20951441 C8.49115968,6.06779364 8.52272628,5.92117609 8.52272628,5.7691256 C8.52272628,5.60284943 8.48816849,5.4424351 8.42961755,5.28841875 C8.48816849,5.1959875 8.52272628,5.09980324 8.52272628,4.99997319 C8.52272628,4.36274799 7.25073885,3.84611948 5.68182813,3.84611948 C4.11288558,3.84611948 2.84077087,4.36274799 2.84077087,4.99997319 C2.84077087,5.09980324 2.87545594,5.1959875 2.93400688,5.28841875 C2.92331497,5.31647696 2.9180963,5.34578617 2.90902727,5.3742733 C2.51151727,5.69763971 2.27273125,6.10031972 2.27273125,6.53845673 C2.27273125,6.74773166 2.328291,6.94864275 2.42785943,7.13715104 C1.97354866,7.512166 1.70453253,7.96831745 1.70453253,8.46157008 L0.568166902,8.46157008 L0.568166902,0.714144019 C0.568166902,0.319720633 0.804120841,0 1.09509357,0 L17.0865973,0 C17.3776019,0 17.6136513,0.319720633 17.6136513,0.714144019 L17.6136513,8.46157008 L16.4772857,8.46157008 C16.4772857,7.96831745 16.2082695,7.512166 15.7539588,7.13715104 Z" id="Fill-1"></path>
                        </g>
                    </g>
                </g>
            </g>
        </g>
    </g>
</svg>