<?xml version="1.0" encoding="UTF-8"?>
<svg width="19px" height="20px" viewBox="0 0 19 20" version="1.1" xmlns="http://www.w3.org/2000/svg" xmlns:xlink="http://www.w3.org/1999/xlink">
    <!-- Generator: sketchtool 47.1 (45422) - http://www.bohemiancoding.com/sketch -->
    <title>99B29ADF-BD9D-4D9E-9609-98E11829104E</title>
    <desc>Created with sketchtool.</desc>
    <defs></defs>
    <g id="Page-1" stroke="none" stroke-width="1" fill="none" fill-rule="evenodd">
        <g id="房源详情01" transform="translate(-690.000000, -908.000000)" fill="#333333">
            <g id="tab" transform="translate(360.000000, 907.000000)">
                <g id="Group-4-Copy-3" transform="translate(330.000000, 0.000000)">
                    <path d="M18.1485993,11.0220158 L16.3343971,11.0220158 L16.3343971,4.67227162 C16.3343971,2.67670524 14.7016565,1.0438916 12.7060171,1.0438916 C11.6174909,1.0438916 9.62192448,1.3160475 8.98694275,2.04172351 C8.71478685,2.04172351 8.44263094,1.95102923 8.17057247,1.95102923 C4.54219245,2.04172351 4.54219245,7.39361145 4.54219245,7.39361145 L11.7989525,7.39361145 C11.7989525,7.39361145 11.7081851,4.94442753 10.619659,3.31161389 C11.1639708,3.03955542 11.7989525,2.85809379 12.2524726,2.85809379 C13.522363,2.85809379 14.5201949,3.94659562 14.5201949,5.30727771 L14.5201949,11.0220158 L0.00665042631,11.0220158 L0.00665042631,12.9268879 C0.00665042631,15.7388977 1.27663825,17.6437942 3.54436054,18.5508343 L2.72799026,19.7301279 C2.54652862,20.0929781 2.72799026,20.5464982 3.27220463,20.8186541 C3.72572473,21.0907125 4.36070646,21.0000183 4.54219245,20.6371924 L5.35853837,19.457972 C5.44923264,19.3673021 5.44923264,19.1858404 5.44923264,19.0044519 C5.99354446,19.0951462 6.53775883,19.1858404 7.17274056,19.1858404 L10.9825091,19.1858404 C11.6174909,19.1858404 12.1618027,19.0951462 12.7060171,19.0951462 C12.6153228,19.457972 12.7060171,19.7301279 12.9781486,20.0021864 L13.703849,20.7278624 C14.0666748,21.0907125 14.7016565,21.0907125 15.155201,20.7278624 C15.5180268,20.3650365 15.5180268,19.7301279 15.155201,19.2765104 L14.5201949,18.6416261 C16.8787089,17.7344641 18.1485993,15.7388977 18.1485993,12.9268879 L18.1485993,11.0220158 Z M6.35637028,5.57943362 C6.35637028,5.57943362 6.35637028,3.76523143 8.17057247,3.76523143 C9.89398295,3.76523143 9.98477467,5.57943362 9.98477467,5.57943362 L6.35637028,5.57943362 Z" id="3个独卫" transform="translate(9.077625, 11.021946) scale(-1, 1) translate(-9.077625, -11.021946) "></path>
                </g>
            </g>
        </g>
    </g>
</svg>