<?xml version="1.0" encoding="UTF-8"?>
<svg width="21px" height="20px" viewBox="0 0 21 20" version="1.1" xmlns="http://www.w3.org/2000/svg" xmlns:xlink="http://www.w3.org/1999/xlink">
    <!-- Generator: sketchtool 47.1 (45422) - http://www.bohemiancoding.com/sketch -->
    <title>9FBC46DB-B0EA-4753-94CF-2681B14C4C6A</title>
    <desc>Created with sketchtool.</desc>
    <defs></defs>
    <g id="Page-1" stroke="none" stroke-width="1" fill="none" fill-rule="evenodd">
        <g id="房源详情01" transform="translate(-360.000000, -907.000000)" fill-rule="nonzero" fill="#444444">
            <g id="tab" transform="translate(360.000000, 907.000000)">
                <g id="Group-4">
                    <g id="独栋别墅">
                        <path d="M10.3212903,3.83935484 L2.58064516,10.4754839 L2.58064516,19.3548387 C2.58064516,19.7109677 2.86967742,20 3.22580645,20 L8.38709677,20 L8.38709677,14.8387097 L12.2580645,14.8387097 L12.2580645,20 L17.4193548,20 C17.7754839,20 18.0645161,19.7109677 18.0645161,19.3548387 L18.0645161,10.476129 L10.3212903,3.83935484 Z M12.2580645,12.2580645 L8.38709677,12.2580645 L8.38709677,9.03225806 L12.2580645,9.03225806 L12.2580645,12.2580645 Z" id="Shape"></path>
                        <polygon id="Shape" points="10.3212903 0.440645161 5.80645161 4.31096774 5.80645161 1.93548387 3.22580645 1.93548387 3.22580645 6.52322581 0.380645161 8.96258065 1.22064516 9.94193548 10.3212903 2.14 19.4245161 9.94193548 20.2645161 8.96258065"></polygon>
                    </g>
                </g>
            </g>
        </g>
    </g>
</svg>