<?xml version="1.0" encoding="UTF-8"?>
<svg width="22px" height="20px" viewBox="0 0 22 20" version="1.1" xmlns="http://www.w3.org/2000/svg" xmlns:xlink="http://www.w3.org/1999/xlink">
    <!-- Generator: sketchtool 47.1 (45422) - http://www.bohemiancoding.com/sketch -->
    <title>57FF2767-82D7-4574-8E65-532C6B884868</title>
    <desc>Created with sketchtool.</desc>
    <defs></defs>
    <g id="Page-1" stroke="none" stroke-width="1" fill="none" fill-rule="evenodd">
        <g id="房源详情01" transform="translate(-360.000000, -866.000000)" fill="#808080">
            <g id="Group-5" transform="translate(360.000000, 865.000000)">
                <g id="map" transform="translate(0.000000, 1.000000)">
                    <path d="M10.729868,3.22787975 C9.18186208,3.22787975 7.92402222,4.42275316 7.92402222,5.8810443 C7.92402222,7.33920886 9.18186208,8.53420886 10.729868,8.53420886 C12.2778739,8.53420886 13.5357138,7.33920886 13.5357138,5.8810443 C13.5357138,4.42275316 12.2778739,3.22787975 10.729868,3.22787975 L10.729868,3.22787975 Z M10.6911369,7.48101266 C9.7623454,7.48101266 9.00764754,6.77218354 9.00764754,5.8810443 C9.00764754,5.01015823 9.7623454,4.28094937 10.6911369,4.28094937 C11.620019,4.28094937 12.374596,4.98990506 12.374596,5.8810443 C12.374596,6.77218354 11.620019,7.48101266 10.6911369,7.48101266 L10.6911369,7.48101266 Z M10.8653212,0.0278481013 C7.42088023,0.0278481013 4.71190765,2.9443038 4.71190765,6.69110759 C4.71190765,10.3367722 10.2654572,16.2506646 10.5170433,16.5139557 L10.8653212,16.878481 L11.2136293,16.5139557 C11.4458045,16.2709177 17.0187649,10.3367722 17.0187649,6.69110759 C17.0187649,2.9443038 14.3096412,0.0278481013 10.8653212,0.0278481013 L10.8653212,0.0278481013 Z M10.9233121,15.1771835 C9.22059322,13.2936392 5.79553296,9.02025316 5.79553296,6.58984177 C5.79553296,3.45063291 8.00151473,1.10132911 10.9040825,1.10132911 C13.8258799,1.10132911 16.0318616,3.45063291 16.0318616,6.58984177 C16.0318616,9.02025316 12.6069223,13.2936392 10.9233121,15.1771835 L10.9233121,15.1771835 Z M3.49279893,11.7746519 C2.89296515,11.7746519 2.29310114,12.2405696 2.15761774,12.8075949 L0.0291284774,18.9644937 C-0.106354922,19.5316456 0.241953215,19.9974367 0.84181723,19.9974367 L20.6372692,19.9974367 C21.2371333,19.9974367 21.6047918,19.5316456 21.449958,18.9644937 L19.3214687,12.8075949 C19.1859853,12.2405696 18.5667709,11.7746519 17.9862875,11.7746519 L16.6511063,11.7746519 L16.6511063,12.767057 L18.0636289,12.767057 L20.2889913,18.9037975 L1.32557853,18.9037975 L3.55078982,12.767057 L5.00207372,12.767057 L5.00207372,11.7746519 L3.49279893,11.7746519 Z"></path>
                </g>
            </g>
        </g>
    </g>
</svg>