<?xml version="1.0" encoding="UTF-8"?>
<svg width="20px" height="20px" viewBox="0 0 20 20" version="1.1" xmlns="http://www.w3.org/2000/svg" xmlns:xlink="http://www.w3.org/1999/xlink">
    <!-- Generator: Sketch 48.2 (47327) - http://www.bohemiancoding.com/sketch -->
    <title>分享</title>
    <desc>Created with Sketch.</desc>
    <defs></defs>
    <g id="房源详情01" stroke="none" stroke-width="1" fill="none" fill-rule="evenodd" transform="translate(-1027.000000, -740.000000)">
        <g id="Group-22" transform="translate(1027.000000, 740.000000)" fill="#333333">
            <g id="分享">
                <path d="M16.5487222,6.90338419 C18.444,6.90338419 19.9826389,5.36668516 19.9826389,3.47423024 C19.9826389,1.5857975 18.444,0.0450762829 16.5487222,0.0450762829 C14.6535278,0.0450762829 13.1145833,1.5857975 13.1145833,3.47423024 C13.1145833,3.64413315 13.1305278,3.80601942 13.1541944,3.9681276 L5.93425,6.74138696 C5.30533333,6.07772538 4.41905556,5.65902913 3.43391667,5.65902913 C1.54308333,5.65902913 0,7.19572816 0,9.08818308 C0,10.980527 1.54308333,12.517448 3.43391667,12.517448 C4.17361111,12.517448 4.85797222,12.2803606 5.41611111,11.8852982 L10.3096667,15.140638 C10.1079722,15.5792788 9.9935,16.0611373 9.9935,16.570846 C9.9935,18.46319 11.5321111,20 13.4270833,20 C15.3224722,20 16.8613333,18.46319 16.8613333,16.570846 C16.8613333,14.6783911 15.3224722,13.1416921 13.4270833,13.1416921 C12.4938056,13.1416921 11.6470278,13.5169209 11.0299444,14.1214424 L6.30219444,10.9727323 C6.65830556,10.4313731 6.87186111,9.78349515 6.87186111,9.08818308 C6.87186111,8.63786408 6.78080556,8.2073509 6.62272222,7.81217753 L13.5539167,5.14920943 C14.1434444,6.19614424 15.2631389,6.90338419 16.5487222,6.90338419 Z M3.43391667,11.2689598 C2.23111111,11.2689598 1.25022222,10.2932039 1.25022222,9.08818308 C1.25022222,7.88316227 2.23111111,6.90338419 3.43391667,6.90338419 C4.64072222,6.90338419 5.62163889,7.88316227 5.62163889,9.08818308 C5.62163889,10.2932039 4.64072222,11.2689598 3.43391667,11.2689598 Z M13.4270833,14.3899584 C14.6298889,14.3899584 15.6111111,15.3697087 15.6111111,16.570846 C15.6111111,17.7757836 14.6298889,18.7556449 13.4270833,18.7556449 C12.2208056,18.7556449 11.2394722,17.7757836 11.2394722,16.570846 C11.2394722,15.3697087 12.2208056,14.3899584 13.4270833,14.3899584 Z M16.5487222,1.29345354 C17.7554167,1.29345354 18.7366667,2.27320388 18.7366667,3.47423024 C18.7366667,4.67916782 17.7554167,5.65902913 16.5487222,5.65902913 C15.3461389,5.65902913 14.3651389,4.67916782 14.3651389,3.47423024 C14.3651389,2.27320388 15.3461389,1.29345354 16.5487222,1.29345354 Z"></path>
            </g>
        </g>
    </g>
</svg>