<?xml version="1.0" encoding="UTF-8"?>
<svg width="40px" height="40px" viewBox="0 0 40 40" version="1.1" xmlns="http://www.w3.org/2000/svg" xmlns:xlink="http://www.w3.org/1999/xlink">
    <!-- Generator: sketchtool 47.1 (45422) - http://www.bohemiancoding.com/sketch -->
    <title>5424BB23-2B5D-4D5A-9CFC-71AA40A7228C</title>
    <desc>Created with sketchtool.</desc>
    <defs></defs>
    <g id="Page-1" stroke="none" stroke-width="1" fill="none" fill-rule="evenodd">
        <g id="故事详情页01" transform="translate(-605.000000, -2813.000000)">
            <g id="评论" transform="translate(585.000000, 2746.000000)">
                <g id="头像" transform="translate(20.000000, 67.000000)">
                    <g id="参与讨论账户头像">
                        <circle id="Oval-2" fill="#E0E0E0" cx="20" cy="20" r="20"></circle>
                        <path d="M19.8957455,21.4834068 C16.2631865,21.4834068 13.3081484,18.4643512 13.3081484,14.7524254 C13.3081484,11.0403902 16.2631865,8.02185366 19.8957455,8.02185366 C23.5278768,8.02185366 26.4829149,11.0409366 26.4829149,14.7528351 C26.4829149,18.4648702 23.5278768,21.4834068 19.8957455,21.4834068 Z M19.8957455,9.59365073 C17.111959,9.59365073 14.8473806,11.9082537 14.8473806,14.7524254 C14.8473806,17.5964878 17.1124936,19.9110634 19.8957455,19.9110634 C22.6789974,19.9110634 24.9436828,17.5964878 24.9436828,14.7524254 C24.9436828,11.9082537 22.6795321,9.59365073 19.8957455,9.59365073 Z" id="Fill-1" fill="#FFFFFF"></path>
                        <path d="M28.6216611,30.3999727 C28.196767,30.3999727 27.8523659,30.0484839 27.8523659,29.6138693 C27.8523659,25.1308644 24.28287,21.4834068 19.8957455,21.4834068 C15.5080865,21.4834068 11.9392322,25.1308644 11.9392322,29.6138693 C11.9392322,30.0480468 11.5942162,30.3999727 11.1692953,30.3999727 C10.7445081,30.3999727 10.4,30.0484839 10.4,29.6138693 C10.4,24.2639844 14.6598487,19.9116098 19.8957455,19.9116098 C25.1312414,19.9116098 29.3905554,24.2639844 29.3905554,29.6138693 C29.3905554,30.0484839 29.046582,30.3999727 28.6216611,30.3999727 Z" id="Fill-3" fill="#FFFFFF"></path>
                    </g>
                </g>
            </g>
        </g>
    </g>
</svg>