<?xml version="1.0" encoding="UTF-8"?>
<svg width="17px" height="20px" viewBox="0 0 17 20" version="1.1" xmlns="http://www.w3.org/2000/svg" xmlns:xlink="http://www.w3.org/1999/xlink">
    <!-- Generator: sketchtool 47.1 (45422) - http://www.bohemiancoding.com/sketch -->
    <title>2A22F80E-43B6-4F09-AFCF-3DFC9D517C07</title>
    <desc>Created with sketchtool.</desc>
    <defs></defs>
    <g id="房源详情页" stroke="none" stroke-width="1" fill="none" fill-rule="evenodd">
        <g id="房源详情0-改版02" transform="translate(-481.000000, -764.000000)" fill="#333333">
            <g id="Group-23" transform="translate(0.000000, 595.000000)">
                <g id="tab" transform="translate(360.000000, 168.000000)">
                    <g id="Group-4-Copy" transform="translate(121.000000, 0.000000)">
                        <path d="M15.7216586,1 L0.641664384,1 C0.287481937,1 0,1.25973153 0,1.57972502 L0,13.7462009 L1.2837596,13.7462009 L1.2837596,2.15959158 L15.0803076,2.15959158 L15.0803076,2.49947187 L4.81305079,3.95209298 L4.81305079,19.3987941 L15.1153616,20.0238482 L15.1168891,20.6059441 C15.2031728,20.8342885 15.4400125,20.9998585 15.7218153,20.9998585 C15.8921112,20.9998585 16.055357,20.9387826 16.1755981,20.8300068 C16.2959959,20.7213371 16.3636364,20.5738492 16.3636364,20.4201688 L16.3636364,1.57972502 C16.3636364,1.42600925 16.2959959,1.27852137 16.1755981,1.16974552 C16.0552004,1.06096968 15.8919545,1 15.7216586,1 Z M7.17083351,13.1389811 C6.86835081,13.1389811 6.61607954,12.8012948 6.55106318,12.349277 L6.56128564,11.842022 C6.63793443,11.4176405 6.88013992,11.1053965 7.17052018,11.1053965 C7.5222743,11.1053965 7.80713208,11.5604575 7.80713208,12.1223127 C7.80760208,12.683814 7.52254847,13.1389811 7.17083351,13.1389811 Z M1.28360293,20.420275 C1.28360293,20.7401269 0.996160162,21 0.64182105,21 C0.287638603,21 0.000156665906,20.7401269 0.000156665906,20.420275 L0.000156665906,13.7462009 L1.28027378,13.7462009 L1.28360293,20.420275 Z" id="5间卧室"></path>
                    </g>
                </g>
            </g>
        </g>
    </g>
</svg>