<?xml version="1.0" encoding="UTF-8"?>
<svg width="24px" height="20px" viewBox="0 0 24 20" version="1.1" xmlns="http://www.w3.org/2000/svg" xmlns:xlink="http://www.w3.org/1999/xlink">
    <!-- Generator: sketchtool 47.1 (45422) - http://www.bohemiancoding.com/sketch -->
    <title>D7244EC6-F46B-402E-B02A-D8E12087EC01</title>
    <desc>Created with sketchtool.</desc>
    <defs></defs>
    <g id="Page-1" stroke="none" stroke-width="1" fill="none" fill-rule="evenodd">
        <g id="房源详情01" transform="translate(-803.000000, -908.000000)" fill="#333333">
            <g id="tab" transform="translate(360.000000, 907.000000)">
                <g id="Group-4-Copy-4" transform="translate(443.000000, 0.000000)">
                    <path d="M14.8158277,16.0631707 C15.336411,16.2263659 15.8327652,16.4277805 16.262286,16.7858293 C17.8068069,18.0695366 17.4270777,20.9983659 17.4270777,20.9983659 L0.0418276951,20.9983659 C0.0418276951,20.9983659 -0.340734805,18.0695366 1.2080777,16.7858293 C1.64322353,16.4194878 2.1495777,16.2146585 2.68009853,16.0498293 C4.01553603,15.6502439 5.52449436,15.5303902 6.5812027,13.8919512 C6.5812027,13.8919512 7.1245152,13.171 5.89566103,11.4060488 C4.65836936,9.63614634 4.5588277,6.8305122 4.86880686,4.66090244 C5.1760152,2.49141463 6.9225152,1.0444878 8.73299436,1.0444878 C10.5477652,1.0444878 12.2942652,2.49304878 12.6014735,4.66090244 C12.911536,6.8305122 12.8090777,9.63614634 11.5732444,11.4060488 C10.3443902,13.171 10.8876819,13.8919512 10.8876819,13.8919512 C11.9514944,15.5436341 13.4733069,15.6518537 14.8158277,16.061439 L14.8158277,16.0631707 Z M18.6188902,15.3921463 C19.816411,17.2003659 21.7478069,16.6625366 22.9993485,17.6749268 C24.2608277,18.6872927 23.9522235,21 23.9522235,21 L18.2875152,21 C18.3543277,20.1741463 18.4624735,17.2303659 16.5666402,15.7035122 C16.1465569,15.371 15.6863485,15.1139512 15.2013277,14.9409268 C15.1870777,14.6262439 15.0476819,14.1316585 14.5442652,13.4307317 C13.5401194,12.0320976 13.4519735,9.81926829 13.7008485,8.10260976 C13.9568694,6.39758537 15.3790569,5.25534146 16.853911,5.25534146 C18.3415569,5.25534146 19.7608902,6.39758537 20.0112235,8.10260976 C20.2643902,9.81926829 20.1818694,12.0320976 19.1749527,13.4307317 C18.1708902,14.8226829 18.6188902,15.3921463 18.6188902,15.3921463 Z" id="宜住5-20人"></path>
                </g>
            </g>
        </g>
    </g>
</svg>